<?xml version="1.0" encoding="UTF-8" standalone="no"?>
<!-- Generator: Adobe Illustrator 16.0.0, SVG Export Plug-In . SVG Version: 6.00 Build 0)  -->

<svg
   xmlns:dc="http://purl.org/dc/elements/1.1/"
   xmlns:cc="http://creativecommons.org/ns#"
   xmlns:rdf="http://www.w3.org/1999/02/22-rdf-syntax-ns#"
   xmlns:svg="http://www.w3.org/2000/svg"
   xmlns="http://www.w3.org/2000/svg"
   xmlns:sodipodi="http://sodipodi.sourceforge.net/DTD/sodipodi-0.dtd"
   xmlns:inkscape="http://www.inkscape.org/namespaces/inkscape"
   version="1.1"
   id="Capa_1"
   x="0px"
   y="0px"
   width="432.763px"
   height="432.762px"
   viewBox="0 0 432.763 432.762"
   style="enable-background:new 0 0 432.763 432.762;"
   xml:space="preserve"
   sodipodi:docname="euro-currency-symbol.svg"
   inkscape:version="0.92.5 (2060ec1f9f, 2020-04-08)"><metadata
   id="metadata41"><rdf:RDF><cc:Work
       rdf:about=""><dc:format>image/svg+xml</dc:format><dc:type
         rdf:resource="http://purl.org/dc/dcmitype/StillImage" /><dc:title></dc:title></cc:Work></rdf:RDF></metadata><defs
   id="defs39" /><sodipodi:namedview
   pagecolor="#ffffff"
   bordercolor="#666666"
   borderopacity="1"
   objecttolerance="10"
   gridtolerance="10"
   guidetolerance="10"
   inkscape:pageopacity="0"
   inkscape:pageshadow="2"
   inkscape:window-width="640"
   inkscape:window-height="480"
   id="namedview37"
   showgrid="false"
   inkscape:zoom="0.5453344"
   inkscape:cx="-125.6105"
   inkscape:cy="216.381"
   inkscape:current-layer="Capa_1" />
<g
   id="g4"
   style="fill:#00ff00;stroke:#000000;stroke-width:9;stroke-miterlimit:4;stroke-dasharray:none"
   inkscape:export-filename="/home/ted/prj/logistiki/qlogistiki.png"
   inkscape:export-xdpi="96"
   inkscape:export-ydpi="96">
	<path
   d="M374.363,342.635c-25.563,26.889-58.292,41.7-92.16,41.7c-55.509,0-103.572-38.981-126.192-95.329h154.186   c13.37,0,24.21-10.84,24.21-24.21s-10.84-24.21-24.21-24.21H143.708c-0.952-7.915-1.472-15.989-1.472-24.211   c0-9.274,0.653-18.365,1.871-27.237h166.09c13.37,0,24.21-10.84,24.21-24.21s-10.84-24.211-24.21-24.211H157.299   c23.105-54.698,70.4-92.302,124.904-92.302c33.868,0,66.597,14.812,92.16,41.698c9.203,9.685,24.518,10.083,34.224,0.872   c9.693-9.215,10.077-24.539,0.875-34.229C374.671,20.156,329.478,0,282.209,0c-80.712,0-149.705,58.62-176.478,140.724H40.854   c-13.37,0-24.21,10.84-24.21,24.21s10.84,24.21,24.21,24.21h54.503c-0.981,8.934-1.542,18.007-1.542,27.237   c0,8.192,0.428,16.255,1.211,24.211H40.854c-13.37,0-24.21,10.84-24.21,24.21s10.84,24.21,24.21,24.21h63.916   c26.043,83.691,95.733,143.75,177.433,143.75c47.274,0,92.456-20.161,127.247-56.755c9.208-9.693,8.83-25.015-0.869-34.229   C398.894,332.563,383.566,332.948,374.363,342.635z"
   id="path2"
   style="fill:#00ff00;stroke:#000000;stroke-width:9;stroke-miterlimit:4;stroke-dasharray:none" />
</g>
<g
   id="g6">
</g>
<g
   id="g8">
</g>
<g
   id="g10">
</g>
<g
   id="g12">
</g>
<g
   id="g14">
</g>
<g
   id="g16">
</g>
<g
   id="g18">
</g>
<g
   id="g20">
</g>
<g
   id="g22">
</g>
<g
   id="g24">
</g>
<g
   id="g26">
</g>
<g
   id="g28">
</g>
<g
   id="g30">
</g>
<g
   id="g32">
</g>
<g
   id="g34">
</g>
</svg>